<?xml version="1.0" encoding="UTF-8"?><svg id="Layer_1" xmlns="http://www.w3.org/2000/svg" viewBox="0 0 641.57 350.39"><defs><style>.cls-1{fill:#1d473e;stroke-width:0px;}</style></defs><path class="cls-1" d="M242.85,126.19c-12.4-39.77-54.06-37.63-83.9-34.06-52.88,6.28-58.93,80.39-41.58,133.95,5.44,16.79,18.54,28.9,33.21,31.54,14.73,2.67,43.5,4.66,61.52-2.59,44.91-18.09,42.48-91.26,30.75-128.83ZM221.35,221.08c-5.97,15.4-15.37,23.98-29.31,25.73-12.14,1.53-25.48-2.93-37.01-7.2-11.64-4.33-24.73-10.4-28.87-26.24-2.56-9.77-.96-20.99.67-31.56,2.4-15.5,4.84-31.26,10.14-45.53,5.28-14.28,19.54-42.5,53.44-35.02,27.96,6.17,37.18,21.19,40.85,43.75,5.28,32.62-3.69,60.09-9.91,76.06Z"/><path class="cls-1" d="M271.52,255.08v-6.48l12.36-3.83c8.54-2.94,11.18-6.48,11.18-15.3v-84.18c0-10.89-3.53-16.19-11.77-17.36l-11.48-1.47v-5.89l36.2-15.89,5.89,3.53v28.55c9.71-20.31,24.13-32.08,40.32-32.08,8.54,0,17.36,3.24,25.31,9.12l-2.65,27.08h-6.48c-7.06-13.54-12.66-18.25-22.37-18.25-11.48,0-23.55,10.01-32.08,25.9v80.94c0,8.83,2.35,10.89,15.89,15.3l12.66,3.83v6.48h-72.99Z"/><path class="cls-1" d="M531.73,238.89l-11.19-.58c-8.83-.58-11.79-4.72-11.79-15.6v-65.34c0-38.25-15-52.67-48.85-52.67-18.53,0-36.49,6.17-55.32,18.84l7.93,25.02h7.95c5.88-17.97,9.42-23.55,15.02-26.79,6.47-3.53,14.12-5,22.07-5,20.02,0,30.32,12.35,30.32,40.32v9.7c-18.84.88-37.09,2.95-49.74,7.07-24.44,7.95-37.97,22.95-37.97,43.27,0,24.72,17.95,40.9,45.32,40.9,16.19,0,32.67-8.23,43.27-21.19l6.77,21.19h5.58l31.79-12.65-1.17-6.48ZM487.88,225.35c-10.6,11.19-23.85,16.77-34.74,16.77-18.84,0-30.9-10.58-30.9-27.95,0-16.18,9.72-27.07,28.55-32.37,9.12-2.65,22.37-4.12,37.09-4.72v48.27Z"/></svg>