<?xml version="1.0" encoding="UTF-8"?><svg id="Layer_1" xmlns="http://www.w3.org/2000/svg" viewBox="0 0 350 350"><defs><style>.cls-1{fill:#fff;stroke-width:0px;}</style></defs><path class="cls-1" d="M238.45,126c-12.4-39.77-54.06-37.63-83.9-34.06-52.88,6.28-58.93,80.39-41.58,133.95,5.44,16.79,18.54,28.9,33.21,31.54,14.73,2.67,43.5,4.66,61.52-2.59,44.91-18.09,42.48-91.26,30.75-128.83ZM216.95,220.89c-5.97,15.4-15.37,23.98-29.31,25.73-12.14,1.53-25.48-2.93-37.01-7.2-11.64-4.33-24.73-10.4-28.87-26.24-2.56-9.77-.96-20.99.67-31.56,2.4-15.5,4.84-31.26,10.14-45.53,5.28-14.28,19.54-42.5,53.44-35.02,27.96,6.17,37.18,21.19,40.85,43.75,5.28,32.62-3.69,60.09-9.91,76.06Z"/></svg>